<mxfile host="app.diagrams.net" modified="2022-04-01T11:44:46.117Z" agent="5.0 (Windows NT 10.0; WOW64) AppleWebKit/537.36 (KHTML, like Gecko) Chrome/75.0.3770.100 Safari/537.36" etag="luNWYoverCDj97bq6zHY" version="17.2.6" type="github" pages="2">
  <diagram id="R2lEEEUBdFMjLlhIrx00" name="Page-1">
    <mxGraphModel dx="1038" dy="576" grid="0" gridSize="10" guides="1" tooltips="1" connect="1" arrows="1" fold="1" page="0" pageScale="1" pageWidth="850" pageHeight="1100" math="0" shadow="0" extFonts="Permanent Marker^https://fonts.googleapis.com/css?family=Permanent+Marker">
      <root>
        <mxCell id="0" />
        <mxCell id="1" parent="0" />
        <mxCell id="23a65jXl4EKVRDY3e5kB-1" value="发现问题&lt;br style=&quot;font-size: 17px;&quot;&gt;2021.12底" style="rounded=0;whiteSpace=wrap;html=1;fontSize=17;" parent="1" vertex="1">
          <mxGeometry x="70" y="160" width="160" height="130" as="geometry" />
        </mxCell>
        <mxCell id="23a65jXl4EKVRDY3e5kB-2" value="怀疑网络或机器问题&lt;br style=&quot;font-size: 17px&quot;&gt;尝试重启&lt;br style=&quot;font-size: 17px&quot;&gt;2022.1" style="whiteSpace=wrap;html=1;rounded=0;fontSize=17;" parent="1" vertex="1">
          <mxGeometry x="360" y="160" width="160" height="130" as="geometry" />
        </mxCell>
        <mxCell id="23a65jXl4EKVRDY3e5kB-4" value="" style="verticalLabelPosition=bottom;verticalAlign=top;html=1;strokeWidth=2;shape=mxgraph.arrows2.arrow;dy=0.6;dx=40;notch=0;" parent="1" vertex="1">
          <mxGeometry x="230" y="210" width="130" height="50" as="geometry" />
        </mxCell>
        <mxCell id="23a65jXl4EKVRDY3e5kB-5" value="排查weblogic问题&lt;br style=&quot;font-size: 17px&quot;&gt;2022.2" style="whiteSpace=wrap;html=1;rounded=0;fontSize=17;" parent="1" vertex="1">
          <mxGeometry x="650" y="160" width="160" height="130" as="geometry" />
        </mxCell>
        <mxCell id="23a65jXl4EKVRDY3e5kB-6" value="" style="verticalLabelPosition=bottom;verticalAlign=top;html=1;strokeWidth=2;shape=mxgraph.arrows2.arrow;dy=0.6;dx=40;notch=0;" parent="1" vertex="1">
          <mxGeometry x="520" y="210" width="130" height="50" as="geometry" />
        </mxCell>
        <mxCell id="23a65jXl4EKVRDY3e5kB-7" value="根据oracle建议修改空指针&lt;br style=&quot;font-size: 17px&quot;&gt;2022.3上旬" style="whiteSpace=wrap;html=1;rounded=0;fontSize=17;" parent="1" vertex="1">
          <mxGeometry x="655" y="420" width="160" height="130" as="geometry" />
        </mxCell>
        <mxCell id="23a65jXl4EKVRDY3e5kB-8" value="" style="verticalLabelPosition=bottom;verticalAlign=top;html=1;strokeWidth=2;shape=mxgraph.arrows2.arrow;dy=0.6;dx=40;notch=0;direction=south;" parent="1" vertex="1">
          <mxGeometry x="710" y="290" width="50" height="130" as="geometry" />
        </mxCell>
        <mxCell id="23a65jXl4EKVRDY3e5kB-9" value="" style="verticalLabelPosition=bottom;verticalAlign=top;html=1;strokeWidth=2;shape=mxgraph.arrows2.arrow;dy=0.6;dx=40;notch=0;direction=west;" parent="1" vertex="1">
          <mxGeometry x="525" y="460" width="130" height="50" as="geometry" />
        </mxCell>
        <mxCell id="23a65jXl4EKVRDY3e5kB-10" value="解决redis报错，修改连接配置&lt;br style=&quot;font-size: 17px&quot;&gt;2022.3下旬" style="whiteSpace=wrap;html=1;rounded=0;fontSize=17;" parent="1" vertex="1">
          <mxGeometry x="365" y="420" width="160" height="130" as="geometry" />
        </mxCell>
        <mxCell id="23a65jXl4EKVRDY3e5kB-11" value="无告警&lt;br&gt;问题解决" style="strokeWidth=2;html=1;shape=mxgraph.flowchart.terminator;whiteSpace=wrap;fontSize=17;fillColor=#d5e8d4;strokeColor=#82b366;" parent="1" vertex="1">
          <mxGeometry x="135" y="462" width="100" height="60" as="geometry" />
        </mxCell>
        <mxCell id="23a65jXl4EKVRDY3e5kB-12" value="" style="verticalLabelPosition=bottom;verticalAlign=top;html=1;strokeWidth=2;shape=mxgraph.arrows2.arrow;dy=0.6;dx=40;notch=0;direction=west;" parent="1" vertex="1">
          <mxGeometry x="235" y="467" width="130" height="50" as="geometry" />
        </mxCell>
      </root>
    </mxGraphModel>
  </diagram>
  <diagram id="Z4EgNNpm7J2CgxFpnB3B" name="第 2 页">
    <mxGraphModel dx="1038" dy="576" grid="0" gridSize="10" guides="1" tooltips="1" connect="1" arrows="1" fold="1" page="1" pageScale="1" pageWidth="827" pageHeight="1169" math="0" shadow="0">
      <root>
        <mxCell id="0" />
        <mxCell id="1" parent="0" />
        <mxCell id="WDEkzHROtfX4rNDKuPA0-6" style="edgeStyle=orthogonalEdgeStyle;rounded=0;orthogonalLoop=1;jettySize=auto;html=1;entryX=0;entryY=0.75;entryDx=0;entryDy=0;" edge="1" parent="1" source="WDEkzHROtfX4rNDKuPA0-1" target="WDEkzHROtfX4rNDKuPA0-3">
          <mxGeometry relative="1" as="geometry" />
        </mxCell>
        <mxCell id="WDEkzHROtfX4rNDKuPA0-1" value="15.8" style="rounded=0;whiteSpace=wrap;html=1;" vertex="1" parent="1">
          <mxGeometry x="71" y="199" width="120" height="60" as="geometry" />
        </mxCell>
        <mxCell id="WDEkzHROtfX4rNDKuPA0-10" style="edgeStyle=orthogonalEdgeStyle;rounded=0;orthogonalLoop=1;jettySize=auto;html=1;" edge="1" parent="1" source="WDEkzHROtfX4rNDKuPA0-2" target="WDEkzHROtfX4rNDKuPA0-9">
          <mxGeometry relative="1" as="geometry" />
        </mxCell>
        <mxCell id="WDEkzHROtfX4rNDKuPA0-2" value="10001" style="rounded=0;whiteSpace=wrap;html=1;" vertex="1" parent="1">
          <mxGeometry x="300" y="152" width="120" height="60" as="geometry" />
        </mxCell>
        <mxCell id="WDEkzHROtfX4rNDKuPA0-8" value="" style="edgeStyle=orthogonalEdgeStyle;rounded=0;orthogonalLoop=1;jettySize=auto;html=1;" edge="1" parent="1" source="WDEkzHROtfX4rNDKuPA0-3" target="WDEkzHROtfX4rNDKuPA0-7">
          <mxGeometry relative="1" as="geometry" />
        </mxCell>
        <mxCell id="WDEkzHROtfX4rNDKuPA0-12" style="edgeStyle=orthogonalEdgeStyle;rounded=0;orthogonalLoop=1;jettySize=auto;html=1;entryX=0;entryY=0.5;entryDx=0;entryDy=0;" edge="1" parent="1" source="WDEkzHROtfX4rNDKuPA0-3" target="WDEkzHROtfX4rNDKuPA0-11">
          <mxGeometry relative="1" as="geometry" />
        </mxCell>
        <mxCell id="WDEkzHROtfX4rNDKuPA0-3" value="10000" style="rounded=0;whiteSpace=wrap;html=1;" vertex="1" parent="1">
          <mxGeometry x="304" y="61" width="120" height="60" as="geometry" />
        </mxCell>
        <mxCell id="WDEkzHROtfX4rNDKuPA0-4" value="10002" style="rounded=0;whiteSpace=wrap;html=1;" vertex="1" parent="1">
          <mxGeometry x="300" y="263" width="120" height="60" as="geometry" />
        </mxCell>
        <mxCell id="WDEkzHROtfX4rNDKuPA0-5" value="10003" style="rounded=0;whiteSpace=wrap;html=1;" vertex="1" parent="1">
          <mxGeometry x="298" y="364" width="120" height="60" as="geometry" />
        </mxCell>
        <mxCell id="WDEkzHROtfX4rNDKuPA0-7" value="uac_oa" style="rounded=0;whiteSpace=wrap;html=1;" vertex="1" parent="1">
          <mxGeometry x="540" y="1" width="120" height="60" as="geometry" />
        </mxCell>
        <mxCell id="WDEkzHROtfX4rNDKuPA0-9" value="uac" style="rounded=0;whiteSpace=wrap;html=1;" vertex="1" parent="1">
          <mxGeometry x="534" y="281" width="120" height="60" as="geometry" />
        </mxCell>
        <mxCell id="WDEkzHROtfX4rNDKuPA0-11" value="uac" style="rounded=0;whiteSpace=wrap;html=1;" vertex="1" parent="1">
          <mxGeometry x="542" y="88" width="120" height="60" as="geometry" />
        </mxCell>
      </root>
    </mxGraphModel>
  </diagram>
</mxfile>
